<?xml version="1.0" encoding="UTF-8"?>
<svg version="1.1" viewBox="0 0 1024 1024" width="1024" height="1024" xmlns="http://www.w3.org/2000/svg">
<!-- Removed the background rectangle to make it transparent -->
<path transform="translate(113,156)" d="m0 0h167l21 2 19 5 14 7 13 10 8 10 7 15 4 16v23l-4 16-7 13-9 10-9 7-16 8 15 5 13 8 10 9 7 10 6 12 4 16 2 13 6-15 8-14 12-15v-133l-3-13-6-11-10-11v-2l2-1h157l20 2 15 4 16 8 8 6 5 5 7 8 6 10 5 14 2 16v9l-3 16-5 13-8 11-7 7-13 8-10 4 3 2 16 8 8 6 9 8 10 14 6 14 4 14 1 7v26l-3 16-3 5-5 30-5 17-5 12-8 15-9 12-9 10-7 7-14 11-4 2-6 16-7 11-11 13-9 13-1 2 11-7 16-9 18-12 14-10 14-11 14-12 13-12 16-15 6-7h2l2-4 14-14 7-9h-29v-4l7-8 8-14 3-11 1-8v-221l-2-15-4-9-6-9-1-3h-2l-4-5v-2l2-1h157l20 2 18 5 14 7 10 8 8 8 8 13 6 18 1 7v18l-3 15-8 16-9 10-9 7-12 6-3 2 11 4 11 6 11 9 9 11 8 16 4 16 1 8v17l-2 14-5 16-7 13-7 9-11 11-11 7-11 5-14 4-14 2-124 1-9 10-9 11-8 10 8-2 12-2 21-11 16-5 5-1h24l16 4 27 10 18 6 6 1h25l1 4-6 10-12 13-11 10-16 10-15 6-14 3h-21l-16-4-17-7-12-7-11-8-13-11-6-6v-2l-10 2-11 4-11 8-10 9-8 7-12 11-11 9-15 12-20 14-19 12-12 8-10 9-6 10-3 10-5 40-4 26-5 16-6 7-7 1-6-3-6-9-4-15-4-27-5-52-3-17-5-16-5-9-10-13-7-10-5-11-4-8-11-7-13-11-8-8-10-13-10-17-6-15-4-15-2-13-1-19-8 16-9 10-9 8-10 6-12 5-20 4-10 1h-180l-1-4 9-10 6-10 4-16v-234l-4-13-5-9-9-11z" fill="#09354F"/>
<path transform="translate(491,304)" d="m0 0h18l19 3 21 7 16 9 10 8 7 6 9 11 9 14 7 15 4 13 2 12 1 11v11l-2 18-4 15-6 15-9 15-9 11-10 10-14 10-17 9-20 6-14 2h-19l-14-2-20-6-16-8-13-9-11-10-11-14-8-14-5-11-4-13-3-16v-23l3-17 6-18 8-16 8-11 9-10 7-7 14-10 16-8 16-5z" fill="#F7EBD5"/>
<path transform="translate(749,327)" d="m0 0h48l9 2 9 5 8 8 2 4 9-1 15-6 12-6h2l-1 9-5 19-10 27-11 21-9 12-10 10-11 7-15 7-9 3-18 3-57 4 2-4 15-16 13-13 14-11 15-11 15-9 20-11-12 3-17 6-19 9-13 9-13 10-24 24-11 14-7 8h-1v-10l4-20 7-19 7-13 6-9 14-14 15-10 10-6 1-34z" fill="#2C7949"/>
<path transform="translate(807,628)" d="m0 0h8l4 3-1 7-12 30-11 29-2 13 6-3 7-7 6-10 11-28 3-1h8l4 4-5 14-8 20-2 6v6l8-4 8-9 5-11 10-25h-8l1-5 3-3 8-2 6-14 7-3h6l2 1-1 8-3 9h9l1 5-4 3-4 1h-7l-2 6-12 29-1 3v10l8-3 7-8 10-13 8-14 6-12 4-2h7l4 3v43l-4 8-7 6-8 3h-11l-6-3-2-3v-5l-12 9-6 2h-9l-5-5-1-5-11 8-6 2h-8l-5-4-2-6-8 7-8 3-9-1-4-5v-5l-8 7-8 4h-9l-6-5-2-6-8 7-10 4-9-1-4-4-1-6 3-12 7-17 2-7-7 2-5 4-7 10-5 10-8 19-1 1h-8l-4-4-1-3-9 6-6 2-8-1-5-5-2-4-9 8-5 2h-8l-5-3-3-4-1-3v-9l2-9 7-14 9-10 6-4 8-3h12l3 2 5-1 2-1h7l2 2-1 6-11 28-1 4v7l5-1 6-5 7-10 11-28 2-3 6-1 6 2-1 9 8-6 9-4 9 1 4 4 1 2v7l-10 26v8l6-3 5-4 5-7 5-12 7-11 10-8 7-3 7-1 9 2 8-21 5-12z" fill="#2C7949"/>
<path transform="translate(354,511)" d="m0 0h8l4 2-1 7-11 29-11 28-2 12 7-3 8-9 8-18 8-19 8-1 6 2-2 9-11 27-2 6v5l6-1 6-5 4-6 5-14 7-11 10-8 8-3h7l6 3 3 5v8l-4 8-7 6-12 6-8 1 2 9 4 3 9-1 8-5 8-8 1-2h4l-1 7-10 11-10 6-5 2h-14l-6-4-1-3h-2l-2-5-8 8-7 4-7 1-8-3-2-3v-4l-4 1-1 3-9 5-6 1-7-3-4-8-4 5-9 5-3 1h-7l-5-3-3-5v-4l-10 8-6 3-8 1-7-3-2-4v-9l7-18 3-8v-5l-5-2-2 6-10 18-9 12-8 8-10 5h-7l-5-3-3-5v-10l9-24 8-18 9-1 5 2-1 7-12 30-1 10 5-1 7-7 10-15 7-15-1-3-5-4 2-7 4-5 4-2h6l3 4v7l8 3 6 3 2 2 1 6-4 12-6 15-1 8 8-3 8-9 9-19 8-10 9-6 6-2h10l6 3 3-10 7-19z" fill="#2C7949"/>
<path transform="translate(736,477)" d="m0 0h24l16 4 27 10 18 6 6 1h25l1 4-6 10-12 13-11 10-16 10-15 6-14 3h-21l-16-4-17-7-12-7-11-8-13-11-6-6v-3l4-1h26l16 3 20 5 21 3h20l-14-4-16-4-29-9-8-2-15-2-14-1v-2l21-11 16-5z" fill="#2C7949"/>
<path transform="translate(210,328)" d="m0 0h59l10 3 10 6 7 9 4 10 2 12-1 15-4 12-7 9-8 7-10 4-5 1h-57l-1-2v-85z" fill="#FDFDFD"/>
<path transform="translate(421,626)" d="m0 0h10l2 2-1 7-13 31v1l11-7 3-1h9l6 4 1 8-4 13-6 15-1 9 7-3 5-4 6-8 4-5 4 1-1 6-7 10-9 9-10 5h-11l-5-4-1-8 4-13 8-20-1-3-6 2-9 9-8 14-9 22-1 1h-9l-2-2-1-8-7 6-11 5-5 1h-12l-7-3-4-6v-4h-2l-2 4-8 6-5 2h-7l-4-2-3-6-1-4-10 9-7 3h-9l-5-3-2-4v-9l7-20 8-20 4-4h10l3 2-1 5-9 21-4 12v7h6l6-5 7-10 12-29 3-2h10l2 2-1 6-11 27-1 4v8l6-2 10-10 11-17 9-16 4-6 5-3h8l4 4-2 9v31l-2 8 8-7 4-5 5-12 6-15 6-17 8-21z" fill="#2C7949"/>
<path transform="translate(162,491)" d="m0 0h28l13 4 8 5 5 6 1 3v14l-6 12-9 9-10 6-6 2 10 4 6 5 3 7-1 10-6 9-8 6-10 5-14 3h-18l-10-3-6-5v-10l8-21 10-22 11-20 9-12 5-3 5 1 2 4-3 7-10 19-6 12 15-4 12-7 7-9 2-5v-8l-3-6-7-5-8-2h-15l-12 3-10 5-7 7-2 3v8l4 3-2 4-3 2h-8l-6-4-3-5v-10l6-10 11-8 11-5z" fill="#2C7949"/>
<path transform="translate(234,613)" d="m0 0h14l16 3 10 5 6 7 2 7-1 11-4 8-9 10-14 8 9 5 5 5 2 4v11l-4 8-7 7-9 5-8 3-10 2h-18l-9-2-6-4-3-4 1-8 6-16 9-20 13-26 8-11 4-3 4-1 3 1 1 7-15 30-1 3 13-2 9-5 5-4 6-9 1-3v-9l-2-6-4-2-9-3h-21l-12 4-8 5-6 7v9l4 3-1 3-6 3-7-1-5-4-3-8 1-8 6-8 7-6 14-7 13-3z" fill="#2C7949"/>
<path transform="translate(210,208)" d="m0 0h54l9 2 8 5 7 8 4 11v19l-4 11-9 10-10 5-13 2h-45l-2-1v-71z" fill="#FDFDFD"/>
<path transform="translate(571,619)" d="m0 0h26l13 4 8 6 4 8v12l-5 10-9 8-14 7 10 4 5 5 3 7-1 8-6 10-7 6-11 5-14 3h-16l-12-3-5-5-1-5 4-13 9-20 10-19 11-16 5-6 6-3 6 1v5l-8 13-10 19 13-3 10-6 8-9 2-10-3-9-9-3-5-1h-8l-12 2-10 5-3 3h-2l-2 5v7l1 4-4 3h-6l-5-3-3-5v-8l3-6 7-7 12-6z" fill="#2C7949"/>
<path transform="translate(750,207)" d="m0 0h41l10 2 8 4 6 5 5 9 2 7v16l-3 11-8 11-10 6-7 2-43 1-3-2v-71z" fill="#FDFDFD"/>
<path transform="translate(456,540)" d="m0 0 7 2 3 1 18 4 11 1h15l10-1 20-6 5-1 2 2-6 10-12 16-6 10-6 17-4 20-7 64-4 25-3 1-3-7-1-10-2-9-3-31-3-37-4-19-6-16-6-11-9-11v-3l-3-1-4-6z" fill="#DF4736"/>
<path transform="translate(484,207)" d="m0 0h39l11 2 9 5 6 7 4 8 1 5v17l-4 11-7 9h-2v2l-13 6-5 1h-39l-1-1v-71z" fill="#FDFDFD"/>
<path transform="translate(749,327)" d="m0 0h48l9 2 9 5 8 8 2 6-7 2-33 4-20 4-15 5h-2v-35z" fill="#FDFDFD"/>
<path transform="translate(225,677)" d="m0 0h12l10 4 5 6v9l-6 9-12 6-5 1h-11l-3-2 1-10 7-20z" fill="#FDFDFB"/>
<path transform="translate(160,556)" d="m0 0h8l9 3 5 3 4 5 1 6-4 8-7 6-8 3-13 1-4-2v-7l8-24z" fill="#FDFDFC"/>
<path transform="translate(568,678)" d="m0 0h11l10 4 4 5 1 7-4 8-7 6-13 4h-10l-3-2 2-11 7-18z" fill="#FDFDFC"/>
<path transform="translate(653,671)" d="m0 0h7l1 5-8 19-6 9h-2l-1 3-4 3h-7l-1-6 3-12 7-12 8-8z" fill="#FDFCFA"/>
<path transform="translate(329,549)" d="m0 0 7 1-1 6-5 12-5 10-5 7-6 4h-5l-1-1v-11l5-12 7-10 6-5z" fill="#FDFCFB"/>
<path transform="translate(781,670)" d="m0 0 7 1-1 7-8 18-7 9-6 5h-5l-1-1v-10l5-13 8-11z" fill="#FDFCFB"/>
<path transform="translate(364,674)" d="m0 0h1l1 5v18l-2 7-5 7h-6l-2-1-1-8 4-10z" fill="#FDFCFA"/>
<path transform="translate(892,679)" d="m0 0h1l1 5v16l-3 8-4 4h-6l-3-4 1-7 6-11z" fill="#FDFCF9"/>
<path transform="translate(239,516)" d="m0 0h6l4 4-1 9-4 5-7 1-5-2-1-7 3-6 2-3z" fill="#2C7949"/>
<path transform="translate(382,516)" d="m0 0h7l3 3v8l-3 5-4 3-8-1-2-2v-8l4-6z" fill="#2C7949"/>
<path transform="translate(835,637)" d="m0 0h6l4 5-1 7-5 6-7 1-4-3-1-4 3-8z" fill="#2C7949"/>
<path transform="translate(593,354)" d="m0 0 3 1 9 17 6 18 2 12 1 11v11l-2 18-4 15-6 15-3 5-3-3 4-4 3-7 4-11 3-14 1-10v-20l-3-19-3-10-6-14-3-5v-2l-3-1z" fill="#FCF9F4"/>
<path transform="translate(418,548)" d="m0 0h5l1 1v6l-4 6-7 6-6 3h-3l3-9 8-11z" fill="#FDFCF9"/>
<path transform="translate(397,368)" d="m0 0 1 4-5 12-4 16-1 9v26l4 19 3 8v3h2l4 9-2 2-7-15-4-13-3-16v-23l3-17 6-18z" fill="#FCFBF7"/>
<path transform="translate(547,521)" d="m0 0 2 3-12 5-14 4-14 2h-19l-14-2-16-5 4-1 16 4 8 1h24l20-4 13-5h2z" fill="#FCFAF6"/>
<path transform="translate(491,304)" d="m0 0h18l19 3 13 4 2 3-10-3-9-1-2-1-11-2h-26l-10 2h-5l2-2z" fill="#FCF9F3"/>
<path transform="translate(612,428)" d="m0 0h1v8l-4 19-8 19-3 3-2-3 4-4 3-7 4-11 3-14 1-9z" fill="#FDFBF8"/>
<path transform="translate(424,332)" d="m0 0 2 2h-2v2l-2 2-2 3-1-1-1 2h-2l-2 5h-2l-2 4-3 4v4l-4 1-2 5-3 3 1-4 7-12 9-11z" fill="#FCFAF7"/>
<path transform="translate(560,321)" d="m0 0 5 2 10 8 7 6 8 10h-3l-4-5-6-5-5-5-3-1-2-4-4 1-3-2z" fill="#FCFAF7"/>
<path transform="translate(511,305)" d="m0 0h7l17 4 7 3 1 2-10-3-9-1-2-1-11-2z" fill="#FCFAF7"/>
<path transform="translate(464,309)" d="m0 0h5l-4 3-10 3h-2v2l-4 3-7 1v-2l14-7z" fill="#FDFCF9"/>
<path transform="translate(426,506)" d="m0 0 3 1 4 5 10 6 6 3-4 1-14-9-6-5z" fill="#FCFAF7"/>
<path transform="translate(397,368)" d="m0 0 1 4-5 12-4 13-2 1 4-16 5-13z" fill="#FCFAF5"/>
<path transform="translate(403,479)" d="m0 0 2 1 3 6v2h2l1 2 2-1v2l2 1h-2l3 4-1 2-8-9-5-9z" fill="#FCFAF6"/>
<path transform="translate(596,478)" d="m0 0 1 3-8 11-2 3h-2l1-5 5-5 2-4z" fill="#FDFCFA"/>
<path transform="translate(561,513)" d="m0 0 2 3-12 7h-2v-2l6-3v-2l5-1z" fill="#FCFAF7"/>
<path transform="translate(404,355)" d="m0 0h2l1 4-4 1-2 5-3 3 1-4z" fill="#FCF9F4"/>
<path transform="translate(560,321)" d="m0 0 5 2 5 5-5-1-2 1-3-2z" fill="#FBF8F2"/>
<path transform="translate(544,313)" d="m0 0 9 3 5 3-3 1-11-5z" fill="#FCFAF6"/>
<path transform="translate(603,465)" d="m0 0 1 3-5 9-3-3 4-4z" fill="#FCF9F4"/>
</svg>
