<?xml version="1.0" encoding="UTF-8" standalone="no"?>
<svg viewBox="0 0 400 400" xmlns="http://www.w3.org/2000/svg">
  <!-- Background circle -->
  <circle cx="200" cy="200" r="190" fill="#f5f5f5" stroke="#003300" stroke-width="4"/>
  
  <!-- Golf green/bushes background MOVED UP -->
  <ellipse cx="200" cy="240" rx="160" ry="80" fill="#004d00" opacity="0.3"/>
  
  <!-- Bush elements MOVED UP -->
  <g id="bushes">
    <!-- Left bush -->
    <path d="M 50 270 Q 70 250 90 270 Q 110 250 130 270 Q 120 290 100 300 Q 80 290 50 270" 
          fill="#003300" opacity="0.8"/>
    <!-- Right bush -->
    <path d="M 270 270 Q 290 250 310 270 Q 330 250 350 270 Q 340 290 320 300 Q 300 290 270 270" 
          fill="#003300" opacity="0.8"/>
    <!-- Center bushes -->
    <circle cx="150" cy="280" r="25" fill="#003300" opacity="0.6"/>
    <circle cx="170" cy="275" r="22" fill="#003300" opacity="0.7"/>
    <circle cx="230" cy="275" r="22" fill="#003300" opacity="0.7"/>
    <circle cx="250" cy="280" r="25" fill="#003300" opacity="0.6"/>
  </g>
  
  <!-- Golf flag pole MOVED UP -->
  <rect x="198" y="110" width="4" height="160" fill="#8B4513"/>
  
  <!-- Golf flag MOVED UP -->
  <path d="M 202 110 L 260 130 L 260 170 L 202 150 Z" fill="#004c99" stroke="#003366" stroke-width="2"/>
  <text x="231" y="149" font-family="Impact, Arial Black, sans-serif" font-size="36" font-weight="bold" fill="white" text-anchor="middle">B</text>
  
  <!-- Golf ball MOVED UP -->
  <circle cx="140" cy="250" r="18" fill="white" stroke="#ccc" stroke-width="1"/>
  <circle cx="135" cy="245" r="2" fill="#ddd"/>
  <circle cx="145" cy="245" r="2" fill="#ddd"/>
  <circle cx="140" cy="254" r="2" fill="#ddd"/>
  
  <!-- Birdie (stylized bird - BIGGER) MOVED UP -->
  <g id="birdie" transform="translate(260, 90) scale(1.5)">
    <path d="M 0 0 Q -10 -5 -15 0 Q -10 5 0 0" fill="#FFD700" stroke="#FFA500" stroke-width="1"/>
    <circle cx="-5" cy="0" r="8" fill="#FFD700"/>
    <circle cx="-7" cy="-2" r="2" fill="#000"/>
    <path d="M -13 0 L -18 -3 L -18 3 Z" fill="#FFA500"/>
    <path d="M 3 0 Q 8 -3 10 0 Q 8 3 3 0" fill="#FFD700"/>
  </g>
  
  <!-- Text: BIRDIE BUSH -->
  <text x="200" y="70" font-family="Impact, Arial Black, sans-serif" font-size="32" font-weight="bold" 
        text-anchor="middle" fill="#003300">BIRDIE BUSH</text>
  
  <!-- Text: BANDITS -->
  <text x="200" y="350" font-family="Impact, Arial Black, sans-serif" font-size="36" font-weight="bold" 
        text-anchor="middle" fill="#003300">BANDITS</text>
  
  <!-- Established date -->
  <text x="200" y="375" font-family="Impact, Arial Black, sans-serif" font-size="16" font-weight="bold" font-style="italic" 
        text-anchor="middle" fill="#666">Est. 2020</text>
  
  <!-- Decorative golf tees -->
  <g id="left-tee" transform="translate(80, 340)">
    <rect x="-2" y="0" width="4" height="15" fill="#8B4513"/>
    <circle cx="0" cy="0" r="4" fill="#8B4513"/>
  </g>
  
  <g id="right-tee" transform="translate(320, 340)">
    <rect x="-2" y="0" width="4" height="15" fill="#8B4513"/>
    <circle cx="0" cy="0" r="4" fill="#8B4513"/>
  </g>
</svg>
